<mxfile host="app.diagrams.net" modified="2021-03-27T13:52:34.387Z" agent="5.0 (Windows NT 10.0; Win64; x64) AppleWebKit/537.36 (KHTML, like Gecko) Chrome/89.0.4389.90 Safari/537.36" etag="XjVwWkUMGAiredfcvbfj" version="14.5.3" type="github">
  <diagram id="kgpKYQtTHZ0yAKxKKP6v" name="Page-1">
    <mxGraphModel dx="1038" dy="548" grid="1" gridSize="10" guides="1" tooltips="1" connect="1" arrows="1" fold="1" page="1" pageScale="1" pageWidth="850" pageHeight="1100" math="0" shadow="0">
      <root>
        <mxCell id="0" />
        <mxCell id="1" parent="0" />
        <mxCell id="eQXL557Xe-epxyEdtAo--6" value="Napvihar teleportkaput Ã©r" style="shape=umlFrame;whiteSpace=wrap;html=1;width=110;height=30;" vertex="1" parent="1">
          <mxGeometry y="40" width="500" height="370" as="geometry" />
        </mxCell>
        <mxCell id="eQXL557Xe-epxyEdtAo--12" value="tp: Teleportkapu" style="shape=umlLifeline;perimeter=lifelinePerimeter;container=1;collapsible=0;recursiveResize=0;rounded=0;shadow=0;strokeWidth=1;" vertex="1" parent="1">
          <mxGeometry x="250" y="78.13" width="100" height="293.75" as="geometry" />
        </mxCell>
        <mxCell id="eQXL557Xe-epxyEdtAo--13" value="" style="points=[];perimeter=orthogonalPerimeter;rounded=0;shadow=0;strokeWidth=1;" vertex="1" parent="eQXL557Xe-epxyEdtAo--12">
          <mxGeometry x="45" y="93.75" width="10" height="106.25" as="geometry" />
        </mxCell>
        <mxCell id="eQXL557Xe-epxyEdtAo--15" value="&lt;span style=&quot;color: rgb(0 , 0 , 0) ; font-family: &amp;#34;helvetica&amp;#34; ; font-size: 11px ; font-style: normal ; font-weight: 400 ; letter-spacing: normal ; text-align: center ; text-indent: 0px ; text-transform: none ; word-spacing: 0px ; background-color: rgb(255 , 255 , 255) ; display: inline ; float: none&quot;&gt;1: Napvihar()&lt;/span&gt;" style="endArrow=classic;html=1;entryX=-0.08;entryY=0.066;entryDx=0;entryDy=0;entryPerimeter=0;" edge="1" parent="1" source="eQXL557Xe-epxyEdtAo--22" target="eQXL557Xe-epxyEdtAo--13">
          <mxGeometry x="0.0554" y="15" width="50" height="50" relative="1" as="geometry">
            <mxPoint x="69.5" y="178.89250000000004" as="sourcePoint" />
            <mxPoint x="600" y="290" as="targetPoint" />
            <mxPoint as="offset" />
          </mxGeometry>
        </mxCell>
        <mxCell id="eQXL557Xe-epxyEdtAo--16" value="" style="endArrow=classic;html=1;dashed=1;exitX=-0.4;exitY=0.958;exitDx=0;exitDy=0;exitPerimeter=0;" edge="1" parent="1" source="eQXL557Xe-epxyEdtAo--13" target="eQXL557Xe-epxyEdtAo--22">
          <mxGeometry width="50" height="50" relative="1" as="geometry">
            <mxPoint x="589" y="395" as="sourcePoint" />
            <mxPoint x="69.5" y="273.6675" as="targetPoint" />
          </mxGeometry>
        </mxCell>
        <mxCell id="eQXL557Xe-epxyEdtAo--3" value="" style="html=1;points=[];perimeter=orthogonalPerimeter;" vertex="1" parent="1">
          <mxGeometry x="300" y="220.01" width="10" height="30" as="geometry" />
        </mxCell>
        <mxCell id="eQXL557Xe-epxyEdtAo--4" value="2: SetMegkergultE(true)" style="edgeStyle=orthogonalEdgeStyle;html=1;align=left;spacingLeft=2;endArrow=block;rounded=0;entryX=1;entryY=0;" edge="1" parent="1" source="eQXL557Xe-epxyEdtAo--13" target="eQXL557Xe-epxyEdtAo--3">
          <mxGeometry relative="1" as="geometry">
            <mxPoint x="300" y="200.01" as="sourcePoint" />
            <Array as="points">
              <mxPoint x="330" y="190" />
              <mxPoint x="330" y="220" />
            </Array>
          </mxGeometry>
        </mxCell>
        <mxCell id="eQXL557Xe-epxyEdtAo--22" value="Controller" style="shape=umlLifeline;participant=umlActor;perimeter=lifelinePerimeter;whiteSpace=wrap;html=1;container=1;collapsible=0;recursiveResize=0;verticalAlign=top;spacingTop=36;outlineConnect=0;" vertex="1" parent="1">
          <mxGeometry x="40" y="78.13" width="20" height="311.87" as="geometry" />
        </mxCell>
      </root>
    </mxGraphModel>
  </diagram>
</mxfile>
